<svg xmlns="http://www.w3.org/2000/svg" viewBox="0 0 500 500"><g id="freepik--background-simple--inject-202"><path d="M449,142.6S382.34,62.84,279,44.53,155.48,104,120.83,149.79,47,212.55,45,278.58s24.85,100,76.49,123.57,104.61,36,156.26,43.15,92.83,3.26,113.1-39.23S402,344,425.49,323.69,502,211.24,449,142.6Z" style="fill:#F18624"></path><path d="M449,142.6S382.34,62.84,279,44.53,155.48,104,120.83,149.79,47,212.55,45,278.58s24.85,100,76.49,123.57,104.61,36,156.26,43.15,92.83,3.26,113.1-39.23S402,344,425.49,323.69,502,211.24,449,142.6Z" style="fill:#fff;opacity:0.7000000000000001"></path></g><g id="freepik--Graphics--inject-202"><g style="opacity:0.15"><rect x="378.94" y="110.23" width="2.27" height="10.69" transform="translate(29.6 302.61) rotate(-45)"></rect><polygon points="367.86 117.09 378.34 106.61 376.73 105 367.86 113.88 363.02 109.04 367.48 104.58 370.92 108.02 372.52 106.41 367.48 101.37 359.81 109.04 367.86 117.09"></polygon><polygon points="384.52 106.08 375.25 96.81 379.71 92.36 382.54 95.19 384.14 93.58 379.71 89.14 372.04 96.81 382.91 107.69 384.52 106.08"></polygon><polygon points="387.45 112.22 396.54 121.31 391.98 125.87 388.81 122.7 387.2 124.31 391.98 129.09 398.15 122.92 398.17 122.94 399.77 121.33 389.06 110.62 387.45 112.22"></polygon><polygon points="394.82 114.2 404.31 104.71 409.51 109.91 404.99 114.43 401.13 110.56 399.52 112.17 404.99 117.64 412.72 109.91 404.31 101.5 393.22 112.59 394.82 114.2"></polygon><rect x="390.96" y="97.73" width="2.27" height="10.82" transform="translate(41.91 307.46) rotate(-45)"></rect><polygon points="390.83 118.49 389.22 116.89 380.04 126.06 375.38 121.4 378.47 118.32 376.86 116.71 372.17 121.4 380.04 129.27 381.01 128.3 381.02 128.3 390.83 118.49"></polygon><polygon points="382.95 102.06 392.21 92.8 396.63 97.21 393.41 100.42 395.02 102.03 399.84 97.21 392.21 89.58 381.34 100.45 382.95 102.06"></polygon><rect x="380.33" y="108" width="11.45" height="2.27" transform="translate(35.9 304.95) rotate(-45)"></rect></g><g style="opacity:0.15"><rect x="378.94" y="152.87" width="2.27" height="10.69" transform="translate(-0.56 315.09) rotate(-45)"></rect><polygon points="367.86 159.73 378.34 149.25 376.73 147.64 367.86 156.52 363.02 151.68 367.48 147.22 370.92 150.66 372.52 149.05 367.48 144.01 359.81 151.68 367.86 159.73"></polygon><polygon points="384.52 148.72 375.25 139.45 379.71 135 382.54 137.83 384.14 136.22 379.71 131.78 372.04 139.45 382.91 150.33 384.52 148.72"></polygon><polygon points="387.45 154.86 396.54 163.95 391.98 168.51 388.81 165.34 387.2 166.95 391.98 171.72 398.15 165.56 398.17 165.58 399.77 163.97 389.06 153.26 387.45 154.86"></polygon><polygon points="394.82 156.84 404.31 147.35 409.51 152.55 404.99 157.06 401.13 153.2 399.52 154.81 404.99 160.28 412.72 152.55 404.31 144.14 393.22 155.23 394.82 156.84"></polygon><rect x="390.96" y="140.36" width="2.27" height="10.82" transform="translate(11.76 319.95) rotate(-45)"></rect><polygon points="390.83 161.13 389.22 159.53 380.04 168.7 375.38 164.04 378.47 160.96 376.86 159.35 372.17 164.04 380.04 171.91 381.01 170.94 381.02 170.94 390.83 161.13"></polygon><polygon points="382.95 144.7 392.21 135.44 396.63 139.85 393.41 143.06 395.02 144.67 399.84 139.85 392.21 132.22 381.34 143.09 382.95 144.7"></polygon><rect x="380.33" y="150.64" width="11.45" height="2.27" transform="translate(5.75 317.43) rotate(-45)"></rect></g><g style="opacity:0.15"><rect x="414.77" y="130.65" width="2.27" height="10.69" transform="translate(25.65 333.92) rotate(-45)"></rect><polygon points="403.69 137.5 414.17 127.03 412.56 125.42 403.69 134.29 398.85 129.46 403.31 125 406.74 128.44 408.35 126.83 403.31 121.79 395.64 129.46 403.69 137.5"></polygon><polygon points="420.35 126.5 411.08 117.23 415.54 112.77 418.37 115.6 419.97 114 415.54 109.56 407.87 117.23 418.74 128.1 420.35 126.5"></polygon><polygon points="423.28 132.64 432.37 141.73 427.81 146.29 424.64 143.12 423.03 144.72 427.81 149.5 433.97 143.34 433.99 143.35 435.6 141.75 424.88 131.03 423.28 132.64"></polygon><polygon points="430.65 134.61 440.14 125.12 445.33 130.32 440.82 134.84 436.95 130.98 435.35 132.58 440.82 138.05 448.55 130.32 440.14 121.91 429.04 133 430.65 134.61"></polygon><rect x="426.78" y="118.14" width="2.27" height="10.82" transform="translate(37.97 338.77) rotate(-45)"></rect><polygon points="426.65 138.91 425.05 137.3 415.87 146.48 411.21 141.82 414.3 138.73 412.69 137.13 408 141.82 415.87 149.69 416.84 148.71 416.85 148.72 426.65 138.91"></polygon><polygon points="418.78 122.48 428.04 113.21 432.45 117.62 429.24 120.84 430.84 122.44 435.67 117.62 428.04 110 417.17 120.87 418.78 122.48"></polygon><rect x="416.16" y="128.42" width="11.45" height="2.27" transform="translate(31.96 336.26) rotate(-45)"></rect></g><g style="opacity:0.15"><rect x="345.11" y="130.65" width="2.27" height="10.69" transform="translate(5.25 284.66) rotate(-45)"></rect><polygon points="334.03 137.5 344.51 127.03 342.9 125.42 334.03 134.29 329.19 129.46 333.65 125 337.09 128.44 338.69 126.83 333.65 121.79 325.98 129.46 334.03 137.5"></polygon><polygon points="350.69 126.5 341.42 117.23 345.88 112.77 348.71 115.6 350.31 114 345.88 109.56 338.21 117.23 349.08 128.1 350.69 126.5"></polygon><polygon points="353.62 132.64 362.71 141.73 358.15 146.29 354.98 143.12 353.38 144.72 358.15 149.5 364.32 143.34 364.34 143.35 365.94 141.75 355.23 131.03 353.62 132.64"></polygon><polygon points="360.99 134.61 370.48 125.12 375.68 130.32 371.16 134.84 367.3 130.98 365.69 132.58 371.16 138.05 378.89 130.32 370.48 121.91 359.39 133 360.99 134.61"></polygon><rect x="357.13" y="118.14" width="2.27" height="10.82" transform="translate(17.57 289.52) rotate(-45)"></rect><polygon points="357 138.91 355.39 137.3 346.21 146.48 341.56 141.82 344.64 138.73 343.03 137.13 338.34 141.82 346.21 149.69 347.19 148.71 347.19 148.72 357 138.91"></polygon><polygon points="349.12 122.48 358.39 113.21 362.8 117.62 359.58 120.84 361.19 122.44 366.01 117.62 358.39 110 347.51 120.87 349.12 122.48"></polygon><rect x="346.5" y="128.42" width="11.45" height="2.27" transform="translate(11.55 287) rotate(-45)"></rect></g><g style="opacity:0.15"><rect x="378.94" y="369.81" width="2.27" height="10.69" transform="translate(-153.96 378.63) rotate(-45)"></rect><polygon points="367.86 376.67 378.34 366.19 376.73 364.59 367.86 373.46 363.02 368.63 367.48 364.17 370.92 367.6 372.52 366 367.48 360.96 359.81 368.63 367.86 376.67"></polygon><polygon points="384.52 365.67 375.25 356.4 379.71 351.94 382.54 354.77 384.14 353.17 379.71 348.73 372.04 356.4 382.91 367.27 384.52 365.67"></polygon><polygon points="387.45 371.81 396.54 380.9 391.98 385.46 388.81 382.29 387.2 383.89 391.98 388.67 398.15 382.5 398.17 382.52 399.77 380.92 389.06 370.2 387.45 371.81"></polygon><polygon points="394.82 373.78 404.31 364.29 409.51 369.49 404.99 374.01 401.13 370.15 399.52 371.75 404.99 377.22 412.72 369.49 404.31 361.08 393.22 372.17 394.82 373.78"></polygon><rect x="390.96" y="357.31" width="2.27" height="10.82" transform="translate(-141.64 383.49) rotate(-45)"></rect><polygon points="390.83 378.08 389.22 376.47 380.04 385.65 375.38 380.99 378.47 377.9 376.86 376.3 372.17 380.99 380.04 388.85 381.01 387.88 381.02 387.88 390.83 378.08"></polygon><polygon points="382.95 361.64 392.21 352.38 396.63 356.79 393.41 360.01 395.02 361.61 399.84 356.79 392.21 349.17 381.34 360.04 382.95 361.64"></polygon><rect x="380.33" y="367.59" width="11.45" height="2.27" transform="translate(-147.65 380.97) rotate(-45)"></rect></g><g style="opacity:0.15"><rect x="378.94" y="412.45" width="2.27" height="10.69" transform="translate(-184.11 391.12) rotate(-45)"></rect><polygon points="367.86 419.31 378.34 408.83 376.73 407.23 367.86 416.1 363.02 411.26 367.48 406.81 370.92 410.24 372.52 408.64 367.48 403.6 359.81 411.26 367.86 419.31"></polygon><polygon points="384.52 408.3 375.25 399.04 379.71 394.58 382.54 397.41 384.14 395.8 379.71 391.37 372.04 399.04 382.91 409.91 384.52 408.3"></polygon><polygon points="387.45 414.45 396.54 423.54 391.98 428.1 388.81 424.93 387.2 426.53 391.98 431.31 398.15 425.14 398.17 425.16 399.77 423.56 389.06 412.84 387.45 414.45"></polygon><polygon points="394.82 416.42 404.31 406.93 409.51 412.13 404.99 416.65 401.13 412.79 399.52 414.39 404.99 419.86 412.72 412.13 404.31 403.72 393.22 414.81 394.82 416.42"></polygon><rect x="390.96" y="399.95" width="2.27" height="10.82" transform="translate(-171.79 395.98) rotate(-45)"></rect><polygon points="390.83 420.71 389.22 419.11 380.04 428.29 375.38 423.63 378.47 420.54 376.86 418.94 372.17 423.63 380.04 431.49 381.01 430.52 381.02 430.52 390.83 420.71"></polygon><polygon points="382.95 404.28 392.21 395.02 396.63 399.43 393.41 402.65 395.02 404.25 399.84 399.43 392.21 391.81 381.34 402.68 382.95 404.28"></polygon><rect x="380.33" y="410.23" width="11.45" height="2.27" transform="translate(-177.8 393.46) rotate(-45)"></rect></g><g style="opacity:0.15"><rect x="414.77" y="390.23" width="2.27" height="10.69" transform="translate(-157.9 409.94) rotate(-45)"></rect><polygon points="403.69 397.09 414.17 386.61 412.56 385 403.69 393.88 398.85 389.04 403.31 384.58 406.74 388.02 408.35 386.41 403.31 381.37 395.64 389.04 403.69 397.09"></polygon><polygon points="420.35 386.08 411.08 376.81 415.54 372.36 418.37 375.19 419.97 373.58 415.54 369.14 407.87 376.81 418.74 387.69 420.35 386.08"></polygon><polygon points="423.28 392.22 432.37 401.31 427.81 405.87 424.64 402.7 423.03 404.31 427.81 409.08 433.97 402.92 433.99 402.94 435.6 401.33 424.88 390.62 423.28 392.22"></polygon><polygon points="430.65 394.19 440.14 384.71 445.33 389.91 440.82 394.42 436.95 390.56 435.35 392.17 440.82 397.64 448.55 389.91 440.14 381.5 429.04 392.59 430.65 394.19"></polygon><rect x="426.78" y="377.72" width="2.27" height="10.82" transform="translate(-145.58 414.8) rotate(-45)"></rect><polygon points="426.65 398.49 425.05 396.88 415.87 406.06 411.21 401.4 414.3 398.32 412.69 396.71 408 401.4 415.87 409.27 416.84 408.3 416.85 408.3 426.65 398.49"></polygon><polygon points="418.78 382.06 428.04 372.8 432.45 377.21 429.24 380.42 430.84 382.03 435.67 377.21 428.04 369.58 417.17 380.45 418.78 382.06"></polygon><rect x="416.16" y="388" width="11.45" height="2.27" transform="translate(-151.6 412.29) rotate(-45)"></rect></g><g style="opacity:0.15"><rect x="345.11" y="390.23" width="2.27" height="10.69" transform="translate(-178.3 360.69) rotate(-45)"></rect><polygon points="334.03 397.09 344.51 386.61 342.9 385 334.03 393.88 329.19 389.04 333.65 384.58 337.09 388.02 338.69 386.41 333.65 381.37 325.98 389.04 334.03 397.09"></polygon><polygon points="350.69 386.08 341.42 376.81 345.88 372.36 348.71 375.19 350.31 373.58 345.88 369.14 338.21 376.81 349.08 387.69 350.69 386.08"></polygon><polygon points="353.62 392.22 362.71 401.31 358.15 405.87 354.98 402.7 353.38 404.31 358.15 409.08 364.32 402.92 364.34 402.94 365.94 401.33 355.23 390.62 353.62 392.22"></polygon><polygon points="360.99 394.19 370.48 384.71 375.68 389.91 371.16 394.42 367.3 390.56 365.69 392.17 371.16 397.64 378.89 389.91 370.48 381.5 359.39 392.59 360.99 394.19"></polygon><rect x="357.13" y="377.72" width="2.27" height="10.82" transform="translate(-165.98 365.55) rotate(-45)"></rect><polygon points="357 398.49 355.39 396.88 346.21 406.06 341.56 401.4 344.64 398.32 343.03 396.71 338.34 401.4 346.21 409.27 347.19 408.3 347.19 408.3 357 398.49"></polygon><polygon points="349.12 382.06 358.39 372.8 362.8 377.21 359.58 380.42 361.19 382.03 366.01 377.21 358.39 369.58 347.51 380.45 349.12 382.06"></polygon><rect x="346.5" y="388" width="11.45" height="2.27" transform="translate(-172 363.03) rotate(-45)"></rect></g><g style="opacity:0.15"><rect x="114.62" y="110.23" width="2.27" height="10.69" transform="translate(-47.82 115.71) rotate(-45)"></rect><polygon points="103.54 117.09 114.02 106.61 112.41 105 103.54 113.88 98.7 109.04 103.16 104.58 106.6 108.02 108.2 106.41 103.16 101.37 95.49 109.04 103.54 117.09"></polygon><polygon points="120.2 106.08 110.93 96.81 115.39 92.36 118.22 95.19 119.83 93.58 115.39 89.14 107.72 96.81 118.59 107.69 120.2 106.08"></polygon><polygon points="123.13 112.22 132.22 121.31 127.66 125.87 124.49 122.7 122.89 124.31 127.66 129.09 133.83 122.92 133.85 122.94 135.45 121.33 124.74 110.62 123.13 112.22"></polygon><polygon points="130.5 114.2 139.99 104.71 145.19 109.91 140.67 114.43 136.81 110.56 135.2 112.17 140.67 117.64 148.4 109.91 139.99 101.5 128.9 112.59 130.5 114.2"></polygon><rect x="126.64" y="97.73" width="2.27" height="10.82" transform="translate(-35.5 120.56) rotate(-45)"></rect><polygon points="126.51 118.49 124.9 116.89 115.72 126.06 111.06 121.4 114.15 118.32 112.54 116.71 107.85 121.4 115.72 129.27 116.69 128.3 116.7 128.3 126.51 118.49"></polygon><polygon points="118.63 102.06 127.89 92.8 132.31 97.21 129.09 100.42 130.7 102.03 135.52 97.21 127.89 89.58 117.03 100.45 118.63 102.06"></polygon><rect x="116.01" y="108" width="11.45" height="2.27" transform="translate(-41.52 118.04) rotate(-45)"></rect></g><g style="opacity:0.15"><rect x="114.62" y="152.87" width="2.27" height="10.69" transform="translate(-77.97 128.19) rotate(-45)"></rect><polygon points="103.54 159.73 114.02 149.25 112.41 147.64 103.54 156.52 98.7 151.68 103.16 147.22 106.6 150.66 108.2 149.05 103.16 144.01 95.49 151.68 103.54 159.73"></polygon><polygon points="120.2 148.72 110.93 139.45 115.39 135 118.22 137.83 119.83 136.22 115.39 131.78 107.72 139.45 118.59 150.33 120.2 148.72"></polygon><polygon points="123.13 154.86 132.22 163.95 127.66 168.51 124.49 165.34 122.89 166.95 127.66 171.72 133.83 165.56 133.85 165.58 135.45 163.97 124.74 153.26 123.13 154.86"></polygon><polygon points="130.5 156.84 139.99 147.35 145.19 152.55 140.67 157.06 136.81 153.2 135.2 154.81 140.67 160.28 148.4 152.55 139.99 144.14 128.9 155.23 130.5 156.84"></polygon><rect x="126.64" y="140.36" width="2.27" height="10.82" transform="translate(-65.65 133.04) rotate(-45)"></rect><polygon points="126.51 161.13 124.9 159.53 115.72 168.7 111.06 164.04 114.15 160.96 112.54 159.35 107.85 164.04 115.72 171.91 116.69 170.94 116.7 170.94 126.51 161.13"></polygon><polygon points="118.63 144.7 127.89 135.44 132.31 139.85 129.09 143.06 130.7 144.67 135.52 139.85 127.89 132.22 117.03 143.09 118.63 144.7"></polygon><rect x="116.01" y="150.64" width="11.45" height="2.27" transform="translate(-71.67 130.53) rotate(-45)"></rect></g><g style="opacity:0.15"><rect x="150.45" y="130.65" width="2.27" height="10.69" transform="translate(-51.76 147.02) rotate(-45)"></rect><polygon points="139.37 137.5 149.85 127.03 148.24 125.42 139.37 134.29 134.53 129.46 138.99 125 142.42 128.44 144.03 126.83 138.99 121.79 131.32 129.46 139.37 137.5"></polygon><polygon points="156.03 126.5 146.76 117.23 151.22 112.77 154.05 115.6 155.65 114 151.22 109.56 143.55 117.23 154.42 128.1 156.03 126.5"></polygon><polygon points="158.96 132.64 168.05 141.73 163.49 146.29 160.32 143.12 158.71 144.72 163.49 149.5 169.65 143.34 169.67 143.35 171.28 141.75 160.56 131.03 158.96 132.64"></polygon><polygon points="166.33 134.61 175.82 125.12 181.01 130.32 176.5 134.84 172.63 130.98 171.03 132.58 176.5 138.05 184.23 130.32 175.82 121.91 164.72 133 166.33 134.61"></polygon><rect x="162.46" y="118.14" width="2.27" height="10.82" transform="translate(-39.45 151.87) rotate(-45)"></rect><polygon points="162.33 138.91 160.73 137.3 151.55 146.48 146.89 141.82 149.98 138.73 148.37 137.13 143.68 141.82 151.55 149.69 152.52 148.71 152.53 148.72 162.33 138.91"></polygon><polygon points="154.46 122.48 163.72 113.21 168.13 117.62 164.92 120.84 166.53 122.44 171.35 117.62 163.72 110 152.85 120.87 154.46 122.48"></polygon><rect x="151.84" y="128.42" width="11.45" height="2.27" transform="translate(-45.46 149.36) rotate(-45)"></rect></g><g style="opacity:0.15"><rect x="80.8" y="130.65" width="2.27" height="10.69" transform="translate(-72.16 97.76) rotate(-45)"></rect><polygon points="69.71 137.5 80.19 127.03 78.58 125.42 69.71 134.29 64.88 129.46 69.33 125 72.77 128.44 74.37 126.83 69.33 121.79 61.66 129.46 69.71 137.5"></polygon><polygon points="86.37 126.5 77.1 117.23 81.56 112.77 84.39 115.6 86 114 81.56 109.56 73.89 117.23 84.77 128.1 86.37 126.5"></polygon><polygon points="89.3 132.64 98.39 141.73 93.83 146.29 90.66 143.12 89.06 144.72 93.83 149.5 100 143.34 100.02 143.35 101.62 141.75 90.91 131.03 89.3 132.64"></polygon><polygon points="96.67 134.61 106.16 125.12 111.36 130.32 106.84 134.84 102.98 130.98 101.37 132.58 106.84 138.05 114.57 130.32 106.16 121.91 95.07 133 96.67 134.61"></polygon><rect x="92.81" y="118.14" width="2.27" height="10.82" transform="translate(-59.85 102.61) rotate(-45)"></rect><polygon points="92.68 138.91 91.07 137.3 81.9 146.48 77.24 141.82 80.32 138.73 78.71 137.13 74.03 141.82 81.89 149.69 82.86 148.71 82.87 148.72 92.68 138.91"></polygon><polygon points="84.8 122.48 94.07 113.21 98.48 117.62 95.26 120.84 96.87 122.44 101.69 117.62 94.07 110 83.2 120.87 84.8 122.48"></polygon><rect x="82.18" y="128.42" width="11.45" height="2.27" transform="translate(-65.86 100.1) rotate(-45)"></rect></g><g style="opacity:0.15"><rect x="114.62" y="369.81" width="2.27" height="10.69" transform="translate(-231.37 191.73) rotate(-45)"></rect><polygon points="103.54 376.67 114.02 366.19 112.41 364.59 103.54 373.46 98.7 368.63 103.16 364.17 106.6 367.6 108.2 366 103.16 360.96 95.49 368.63 103.54 376.67"></polygon><polygon points="120.2 365.67 110.93 356.4 115.39 351.94 118.22 354.77 119.83 353.17 115.39 348.73 107.72 356.4 118.59 367.27 120.2 365.67"></polygon><polygon points="123.13 371.81 132.22 380.9 127.66 385.46 124.49 382.29 122.89 383.89 127.66 388.67 133.83 382.5 133.85 382.52 135.45 380.92 124.74 370.2 123.13 371.81"></polygon><polygon points="130.5 373.78 139.99 364.29 145.19 369.49 140.67 374.01 136.81 370.15 135.2 371.75 140.67 377.22 148.4 369.49 139.99 361.08 128.9 372.17 130.5 373.78"></polygon><rect x="126.64" y="357.31" width="2.27" height="10.82" transform="translate(-219.06 196.59) rotate(-45)"></rect><polygon points="126.51 378.08 124.9 376.47 115.72 385.65 111.06 380.99 114.15 377.9 112.54 376.3 107.85 380.99 115.72 388.85 116.69 387.88 116.7 387.88 126.51 378.08"></polygon><polygon points="118.63 361.64 127.89 352.38 132.31 356.79 129.09 360.01 130.7 361.61 135.52 356.79 127.89 349.17 117.03 360.04 118.63 361.64"></polygon><rect x="116.01" y="367.59" width="11.45" height="2.27" transform="translate(-225.07 194.07) rotate(-45)"></rect></g><g style="opacity:0.15"><rect x="114.62" y="412.45" width="2.27" height="10.69" transform="translate(-261.52 204.22) rotate(-45)"></rect><polygon points="103.54 419.31 114.02 408.83 112.41 407.23 103.54 416.1 98.7 411.26 103.16 406.81 106.6 410.24 108.2 408.64 103.16 403.6 95.49 411.26 103.54 419.31"></polygon><polygon points="120.2 408.3 110.93 399.04 115.39 394.58 118.22 397.41 119.83 395.8 115.39 391.37 107.72 399.04 118.59 409.91 120.2 408.3"></polygon><polygon points="123.13 414.45 132.22 423.54 127.66 428.1 124.49 424.93 122.89 426.53 127.66 431.31 133.83 425.14 133.85 425.16 135.45 423.56 124.74 412.84 123.13 414.45"></polygon><polygon points="130.5 416.42 139.99 406.93 145.19 412.13 140.67 416.65 136.81 412.79 135.2 414.39 140.67 419.86 148.4 412.13 139.99 403.72 128.9 414.81 130.5 416.42"></polygon><rect x="126.64" y="399.95" width="2.27" height="10.82" transform="translate(-249.21 209.07) rotate(-45)"></rect><polygon points="126.51 420.71 124.9 419.11 115.72 428.29 111.06 423.63 114.15 420.54 112.54 418.94 107.85 423.63 115.72 431.49 116.69 430.52 116.7 430.52 126.51 420.71"></polygon><polygon points="118.63 404.28 127.89 395.02 132.31 399.43 129.09 402.65 130.7 404.25 135.52 399.43 127.89 391.81 117.03 402.68 118.63 404.28"></polygon><rect x="116.01" y="410.23" width="11.45" height="2.27" transform="translate(-255.22 206.56) rotate(-45)"></rect></g><g style="opacity:0.15"><rect x="150.45" y="390.23" width="2.27" height="10.69" transform="translate(-235.31 223.04) rotate(-45)"></rect><polygon points="139.37 397.09 149.85 386.61 148.24 385 139.37 393.88 134.53 389.04 138.99 384.58 142.42 388.02 144.03 386.41 138.99 381.37 131.32 389.04 139.37 397.09"></polygon><polygon points="156.03 386.08 146.76 376.81 151.22 372.36 154.05 375.19 155.65 373.58 151.22 369.14 143.55 376.81 154.42 387.69 156.03 386.08"></polygon><polygon points="158.96 392.22 168.05 401.31 163.49 405.87 160.32 402.7 158.71 404.31 163.49 409.08 169.65 402.92 169.67 402.94 171.28 401.33 160.56 390.62 158.96 392.22"></polygon><polygon points="166.33 394.19 175.82 384.71 181.01 389.91 176.5 394.42 172.63 390.56 171.03 392.17 176.5 397.64 184.23 389.91 175.82 381.5 164.72 392.59 166.33 394.19"></polygon><rect x="162.46" y="377.72" width="2.27" height="10.82" transform="translate(-223 227.9) rotate(-45)"></rect><polygon points="162.33 398.49 160.73 396.88 151.55 406.06 146.89 401.4 149.98 398.32 148.37 396.71 143.68 401.4 151.55 409.27 152.52 408.3 152.53 408.3 162.33 398.49"></polygon><polygon points="154.46 382.06 163.72 372.8 168.13 377.21 164.92 380.42 166.53 382.03 171.35 377.21 163.72 369.58 152.85 380.45 154.46 382.06"></polygon><rect x="151.84" y="388" width="11.45" height="2.27" transform="translate(-229.01 225.38) rotate(-45)"></rect></g><g style="opacity:0.15"><rect x="80.8" y="390.23" width="2.27" height="10.69" transform="translate(-255.72 173.79) rotate(-45)"></rect><polygon points="69.71 397.09 80.19 386.61 78.58 385 69.71 393.88 64.88 389.04 69.33 384.58 72.77 388.02 74.37 386.41 69.33 381.37 61.66 389.04 69.71 397.09"></polygon><polygon points="86.37 386.08 77.1 376.81 81.56 372.36 84.39 375.19 86 373.58 81.56 369.14 73.89 376.81 84.77 387.69 86.37 386.08"></polygon><polygon points="89.3 392.22 98.39 401.31 93.83 405.87 90.66 402.7 89.06 404.31 93.83 409.08 100 402.92 100.02 402.94 101.62 401.33 90.91 390.62 89.3 392.22"></polygon><polygon points="96.67 394.19 106.16 384.71 111.36 389.91 106.84 394.42 102.98 390.56 101.37 392.17 106.84 397.64 114.57 389.91 106.16 381.5 95.07 392.59 96.67 394.19"></polygon><rect x="92.81" y="377.72" width="2.27" height="10.82" transform="translate(-243.4 178.64) rotate(-45)"></rect><polygon points="92.68 398.49 91.07 396.88 81.9 406.06 77.24 401.4 80.32 398.32 78.71 396.71 74.03 401.4 81.89 409.27 82.86 408.3 82.87 408.3 92.68 398.49"></polygon><polygon points="84.8 382.06 94.07 372.8 98.48 377.21 95.26 380.42 96.87 382.03 101.69 377.21 94.07 369.58 83.2 380.45 84.8 382.06"></polygon><rect x="82.18" y="388" width="11.45" height="2.27" transform="translate(-249.41 176.13) rotate(-45)"></rect></g><g style="opacity:0.15"><rect x="227.24" y="203.26" width="7.24" height="34.07" transform="translate(-88.15 227.76) rotate(-45)"></rect><polygon points="191.92 225.11 225.31 191.72 220.2 186.6 191.92 214.88 176.51 199.47 190.71 185.26 201.66 196.21 206.78 191.09 190.71 175.03 166.28 199.47 191.92 225.11"></polygon><polygon points="245.01 190.03 215.48 160.5 229.68 146.3 238.7 155.32 243.81 150.2 229.68 136.07 205.24 160.5 239.89 195.15 245.01 190.03"></polygon><polygon points="254.35 209.61 283.31 238.57 268.79 253.1 258.68 243 253.57 248.12 268.79 263.34 288.43 243.69 288.49 243.75 293.61 238.64 259.47 204.49 254.35 209.61"></polygon><polygon points="277.84 215.89 308.07 185.66 324.63 202.22 310.23 216.62 297.92 204.31 292.81 209.43 310.23 226.86 334.87 202.22 308.07 175.43 272.72 210.77 277.84 215.89"></polygon><rect x="265.52" y="163.41" width="7.24" height="34.46" transform="translate(-48.9 243.22) rotate(-45)"></rect><polygon points="265.1 229.58 259.99 224.46 230.75 253.7 215.9 238.85 225.73 229.03 220.61 223.91 205.67 238.85 230.74 263.92 233.84 260.82 233.85 260.83 265.1 229.58"></polygon><polygon points="240.01 177.22 269.53 147.7 283.59 161.76 273.34 172.01 278.46 177.12 293.82 161.76 269.53 137.47 234.89 172.11 240.01 177.22"></polygon><rect x="231.65" y="196.16" width="36.49" height="7.24" transform="translate(-68.07 235.22) rotate(-45)"></rect></g><g style="opacity:0.15"><rect x="227.24" y="339.12" width="7.24" height="34.07" transform="translate(-184.22 267.55) rotate(-45)"></rect><polygon points="191.92 360.97 225.31 327.58 220.2 322.46 191.92 350.74 176.51 335.33 190.71 321.13 201.66 332.07 206.78 326.96 190.71 310.89 166.28 335.33 191.92 360.97"></polygon><polygon points="245.01 325.9 215.48 296.37 229.68 282.16 238.7 291.18 243.81 286.07 229.68 271.93 205.24 296.37 239.89 331.02 245.01 325.9"></polygon><polygon points="254.35 345.47 283.31 374.44 268.79 388.97 258.68 378.86 253.57 383.98 268.79 399.2 288.43 379.55 288.49 379.62 293.61 374.5 259.47 340.36 254.35 345.47"></polygon><polygon points="277.84 351.75 308.07 321.52 324.63 338.09 310.23 352.49 297.92 340.18 292.81 345.29 310.23 362.72 334.87 338.09 308.07 311.29 272.72 346.64 277.84 351.75"></polygon><rect x="265.52" y="299.27" width="7.24" height="34.46" transform="translate(-144.98 283.01) rotate(-45)"></rect><polygon points="265.1 365.44 259.99 360.33 230.75 389.56 215.9 374.72 225.73 364.89 220.61 359.78 205.67 374.72 230.74 399.79 233.84 396.69 233.85 396.7 265.1 365.44"></polygon><polygon points="240.01 313.09 269.53 283.57 283.59 297.62 273.34 307.87 278.46 312.99 293.82 297.62 269.53 273.33 234.89 307.97 240.01 313.09"></polygon><rect x="231.65" y="332.02" width="36.49" height="7.24" transform="translate(-164.14 275.01) rotate(-45)"></rect></g><g style="opacity:0.15"><rect x="341.4" y="268.31" width="7.24" height="34.07" transform="translate(-100.72 327.53) rotate(-45)"></rect><polygon points="306.08 290.16 339.47 256.77 334.36 251.65 306.08 279.93 290.67 264.51 304.87 250.31 315.82 261.26 320.94 256.14 304.87 240.08 280.44 264.51 306.08 290.16"></polygon><polygon points="359.17 255.09 329.63 225.55 343.83 211.35 352.86 220.37 357.97 215.25 343.83 201.12 319.4 225.55 354.05 260.2 359.17 255.09"></polygon><polygon points="368.51 274.66 397.47 303.62 382.94 318.15 372.84 308.05 367.72 313.17 382.94 328.39 402.59 308.74 402.65 308.8 407.77 303.69 373.63 269.54 368.51 274.66"></polygon><polygon points="392 280.94 422.23 250.71 438.79 267.27 424.39 281.67 412.08 269.36 406.96 274.48 424.39 291.91 449.02 267.27 422.23 240.47 386.88 275.82 392 280.94"></polygon><rect x="379.68" y="228.46" width="7.24" height="34.46" transform="translate(-61.47 342.99) rotate(-45)"></rect><polygon points="379.26 294.63 374.15 289.51 344.91 318.75 330.06 303.9 339.88 294.08 334.77 288.96 319.83 303.9 344.89 328.97 348 325.87 348.01 325.88 379.26 294.63"></polygon><polygon points="354.17 242.27 383.69 212.75 397.75 226.81 387.5 237.06 392.62 242.17 407.98 226.81 383.69 202.52 349.05 237.16 354.17 242.27"></polygon><rect x="345.81" y="261.21" width="36.49" height="7.24" transform="translate(-80.63 334.99) rotate(-45)"></rect></g><g style="opacity:0.15"><rect x="119.45" y="268.31" width="7.24" height="34.07" transform="translate(-165.72 170.59) rotate(-45)"></rect><polygon points="84.13 290.16 117.52 256.77 112.4 251.65 84.13 279.93 68.72 264.51 82.92 250.31 93.87 261.26 98.98 256.14 82.92 240.08 58.48 264.51 84.13 290.16"></polygon><polygon points="137.22 255.09 107.68 225.55 121.88 211.35 130.9 220.37 136.02 215.25 121.88 201.12 97.45 225.55 132.1 260.2 137.22 255.09"></polygon><polygon points="146.56 274.66 175.52 303.62 160.99 318.15 150.89 308.05 145.77 313.17 160.99 328.39 180.64 308.74 180.7 308.8 185.82 303.69 151.67 269.54 146.56 274.66"></polygon><polygon points="170.04 280.94 200.27 250.71 216.84 267.27 202.44 281.67 190.13 269.36 185.01 274.48 202.44 291.91 227.07 267.27 200.27 240.47 164.93 275.82 170.04 280.94"></polygon><rect x="157.72" y="228.46" width="7.24" height="34.46" transform="translate(-126.47 186.05) rotate(-45)"></rect><polygon points="157.31 294.63 152.19 289.51 122.95 318.75 108.11 303.9 117.93 294.08 112.82 288.96 97.88 303.9 122.94 328.97 126.05 325.87 126.06 325.88 157.31 294.63"></polygon><polygon points="132.22 242.27 161.74 212.75 175.79 226.81 165.55 237.06 170.67 242.17 186.03 226.81 161.74 202.52 127.1 237.16 132.22 242.27"></polygon><rect x="123.86" y="261.21" width="36.49" height="7.24" transform="translate(-145.64 178.05) rotate(-45)"></rect></g></g><g id="freepik--Hand--inject-202"><path d="M174.8,277.16l26.41,14.32c2.55,3.19,27.69,22.92,35,28.33s10.18,6.68,11.13,11.77-24.82,51.24-24.82,51.24,16.55,22.59,57.6,25.45S325,393,325,393s3.18-43.92,2.87-70c0,0,1.27-32.46-1.6-43.28s-4.77-32.46-13.68-45.83-24.18-45.18-27.37-50-9.86-15-16.23-23.87-12.73-21.32-17.82-16.54a23.23,23.23,0,0,0-5.09,26.41c5.09,11.46,17.5,29,17.5,29s4.14,18.46,4.46,22.27.95,4.78,0,6.69-2.87,6.68-4.46,7.64-3.18-3.19-18.45-7-22.28-5.41-22.28-5.41L203.44,211c-2.55-1.59-5.41-3.5-5.41-3.5s-14.32-15.27-18.14-20.68-9.23-18.78-15.6-25.46-24.18-13.05-24.82-8.28,14,28.64,18.78,38.19,15,29.91,21.32,39.78a83.56,83.56,0,0,0,12.73,15.59l-17.5,30.55" style="fill:#fff"></path><path d="M288.65,409.08c-2.66,0-5.5-.09-8.55-.31-40.82-2.84-57.8-25.43-58-25.66l-.19-.26.15-.28c7.15-12.79,25.53-46.87,24.77-50.9s-2.86-5.62-7.9-9.25c-.92-.66-1.93-1.39-3-2.21-7.14-5.28-32.1-24.84-35-28.33l-26.78-14.52,17.56-30.65a87.5,87.5,0,0,1-12.52-15.42c-6.38-9.89-16.49-30.1-21.35-39.82-1.37-2.76-3.62-6.79-6-11.05C145.57,169.23,138.5,156.54,139,153a2.21,2.21,0,0,1,1.69-1.85c4.69-1.52,18.59,4.18,24,9.84,4.07,4.28,7.66,11.09,10.84,17.1a86.9,86.9,0,0,0,4.8,8.42c3.65,5.18,17.22,19.69,18,20.59.39.25,3,2,5.35,3.46l19.34,12c.84.19,8,1.83,22.21,5.39,9.62,2.41,13.83,4.92,16.08,6.27,1.23.74,1.67,1,2,.79,1.13-.69,2.66-4,3.57-6,.26-.57.5-1.08.69-1.47.61-1.21.5-2,.27-3.67-.1-.72-.23-1.61-.32-2.74-.3-3.6-4.1-20.66-4.42-22.12-.93-1.32-12.62-18-17.5-29a23.84,23.84,0,0,1,5.21-27A3.91,3.91,0,0,1,254,142c3.74.44,7.67,6.34,11.83,12.59,1.16,1.75,2.36,3.55,3.54,5.2,5.44,7.61,11.19,16.28,14.62,21.45l1.62,2.43c1.2,1.81,4.08,7.36,7.71,14.38,5.95,11.5,14.1,27.24,19.66,35.59,6.64,10,9.37,24.22,11.57,35.67.77,4,1.44,7.5,2.18,10.3,2.85,10.77,1.66,42.1,1.61,43.43.31,25.79-2.84,69.59-2.87,70C325.34,393.8,321.71,409.08,288.65,409.08Zm-65.52-26.31c2,2.47,19,22.35,57,25,40.05,2.8,44.3-14.71,44.34-14.88,0-.37,3.17-44.13,2.86-69.9,0-.35,1.23-32.54-1.58-43.16-.75-2.84-1.42-6.33-2.19-10.37-2.18-11.37-4.89-25.51-11.43-35.31-5.59-8.39-13.75-24.16-19.71-35.68-3.62-7-6.48-12.52-7.65-14.28l-1.62-2.43c-3.43-5.17-9.18-13.83-14.6-21.43-1.2-1.66-2.4-3.47-3.57-5.22-3.85-5.79-7.83-11.77-11.1-12.15a2.91,2.91,0,0,0-2.41.9,22.84,22.84,0,0,0-5,25.85c5,11.28,17.33,28.69,17.45,28.87l.08.18c.17.75,4.15,18.53,4.47,22.34.09,1.11.21,2,.31,2.69.24,1.79.38,2.77-.36,4.26-.2.38-.43.88-.68,1.44-1.09,2.35-2.57,5.56-4,6.4-.85.52-1.62,0-3-.78-2.21-1.33-6.33-3.79-15.82-6.16-15.09-3.77-22.19-5.39-22.26-5.41l-.15-.06L203.17,211.4c-2.52-1.58-5.39-3.49-5.42-3.51l-.09-.08c-.58-.62-14.38-15.36-18.18-20.74a85.14,85.14,0,0,1-4.86-8.53c-3.15-5.95-6.71-12.69-10.69-16.87-5.47-5.74-18.94-10.88-23-9.57-.82.26-1,.71-1,1-.43,3.23,7.16,16.86,12.71,26.81,2.38,4.28,4.63,8.32,6,11.09,4.85,9.7,14.94,29.89,21.29,39.73a84.67,84.67,0,0,0,12.64,15.49l.3.27L175.48,277l26.06,14.12.06.08c2.51,3.13,28,23.09,34.91,28.23,1.11.82,2.12,1.55,3,2.21,5.12,3.68,7.46,5.36,8.3,9.88C248.79,336.52,226.44,376.84,223.13,382.77Z" style="fill:#263238"></path><path d="M266.78,198.15a6.54,6.54,0,0,1-1.55-.14l.24-1s4.64,1,12.82-3.75l.51.86C272.94,197.58,268.85,198.15,266.78,198.15Z" style="fill:#263238"></path><path d="M277,228.64c-4.94,0-6.39-2-6.47-2.09l.82-.58s2.69,3.46,13.53.4l.27,1A30.25,30.25,0,0,1,277,228.64Z" style="fill:#263238"></path><path d="M300.58,330.71l-.68-.73c1.14-1.07,2.21-2.14,3.17-3.18l.73.67C302.83,328.53,301.74,329.62,300.58,330.71Z" style="fill:#263238"></path><path d="M306.49,324.29l-.79-.61c6.46-8.46,3.83-12.66,3.8-12.7l.83-.56C310.46,310.61,313.44,315.19,306.49,324.29Z" style="fill:#263238"></path><path d="M276.74,276.55a30.83,30.83,0,0,1-4.89-3.59l.66-.75a30.54,30.54,0,0,0,4.71,3.46Z" style="fill:#263238"></path><path d="M268,269.12a44,44,0,0,1-4.05-5.35c-5.72-8.9-3.33-22.49-3.23-23.07l1,.18c0,.14-2.42,13.79,3.08,22.35a42,42,0,0,0,4,5.23Z" style="fill:#263238"></path><path d="M217.07,228.21l-.93-.37c1-2.61,6.27-5.12,6.49-5.23l.43.91C221.65,224.19,217.81,226.35,217.07,228.21Z" style="fill:#263238"></path><path d="M188.8,244.7c-5.73-4.13-17.5-21-19.73-25.14s.63-6.68.63-6.68,12.42-24.82,15.92-33.1S199,164.19,204.39,162s28-8.91,34.37-12.73,12.09-6.68,13.69-1.9,3.5,11.77-2.23,16.86-34.37,17.5-39.46,21-14,27.05-14,27.05,8.91,16.23,16.23,19.42,10.19,4.13,10.19,4.13,10.29.59,15.34,3.11" style="fill:#fff"></path><path d="M188.51,245.11c-5.87-4.24-17.62-21.11-19.88-25.31a5.93,5.93,0,0,1,.66-7.22c.76-1.5,12.51-25.05,15.87-33,3.58-8.46,13.48-15.8,19-18.09,1.82-.75,5.58-2,9.93-3.45,8.52-2.84,20.18-6.73,24.37-9.24,5.55-3.33,9.52-5.2,12.13-4.23a3.83,3.83,0,0,1,2.29,2.59c1.28,3.83,3.93,11.79-2.37,17.39-3.49,3.11-15,8.71-25.15,13.65-6.63,3.23-12.36,6-14.36,7.4-4.65,3.19-12.82,24.22-13.74,26.6,1.06,1.86,9.24,16.1,15.88,19s9.63,3.94,10.08,4.1c1,.06,10.55.69,15.47,3.15l-.44.9c-4.9-2.45-15-3-15.15-3.06l-.13,0c-.12,0-3-1-10.22-4.15-7.4-3.22-16.11-19-16.47-19.63l-.11-.21.08-.21c.36-1,9-23.74,14.18-27.29,2.07-1.42,7.83-4.22,14.5-7.47,9.59-4.67,21.53-10.48,24.92-13.49,5.1-4.54,4-10.53,2.08-16.34a2.9,2.9,0,0,0-1.68-2c-2.49-.92-7.12,1.66-11.27,4.15S223.48,156,214.45,159c-4.34,1.44-8.08,2.69-9.87,3.43-5.62,2.31-15.18,9.7-18.5,17.55-3.47,8.19-15.8,32.88-15.93,33.12l-.11.15c-.11.1-2.53,2.36-.53,6.08,2.34,4.34,14.06,21,19.58,25Z" style="fill:#263238"></path><path d="M238.19,151.09a5,5,0,0,0,3.65,2.25c2.53.28,8.52-2.43,9.56-4.22" style="fill:#fff"></path><path d="M242.22,153.85a3,3,0,0,1-.43,0,5.46,5.46,0,0,1-4-2.5l.87-.49a4.47,4.47,0,0,0,3.28,2c2.44.26,8.18-2.44,9.07-4l.87.5C250.73,151.28,245.08,153.85,242.22,153.85Z" style="fill:#263238"></path><path d="M192,214.37a15.31,15.31,0,0,1-7.12-2.12l.52-.86c.07.05,6.7,4.05,11,.47l.64.77A7.67,7.67,0,0,1,192,214.37Z" style="fill:#263238"></path><path d="M208.41,186c-6.26,0-8.46-6.33-8.49-6.4l1-.32c.1.29,2.51,7.17,9.77,5.45l.23,1A10.57,10.57,0,0,1,208.41,186Z" style="fill:#263238"></path><path d="M197.39,289.57c-2.54-3.18-16.87-9.22-29-14.95S142.66,267,136.29,256.8s-23.87-38.51-27.69-44.87,4.78-10.51,17.51-4.14,25.77,30.55,25.77,30.55l4.14,2.55c4.14,2.54,18.78,14,18.78,14s-10.51-9.55-13.69-16.55-14.64-31.82-17.18-36.28-1.27-7-1.59-24.5-1.91-33.1-1.59-42.65,10.18-2.86,16.54,7.64,3.19,34.69,4.14,38.51,2.86,12.09,3.82,14,5.73,11.46,10.82,20.05,11.14,20.68,11.14,20.68l3.18,1c3.18.95,20.68,13.36,20.68,13.36s6.69-.63,10.82.32,9.55,4.14,9.55,4.14" style="fill:#fff"></path><path d="M197,289.89c-1.92-2.4-11.5-6.82-20.76-11.09-2.68-1.24-5.4-2.49-8-3.73-3.45-1.63-7.05-3-10.54-4.25-8.83-3.26-17.18-6.35-21.81-13.76-6.31-10.09-23.82-38.42-27.69-44.88-1.35-2.25-1.31-4.42.12-6,2.4-2.6,9.07-3.36,18,1.12,12.4,6.2,24.81,28.59,25.93,30.64l4,2.48c2.37,1.45,8,5.72,12.54,9.17-3-3.29-6.53-7.49-8.16-11.08-3-6.69-14.59-31.73-17.17-36.24-1.79-3.15-1.76-5.37-1.66-12,0-3,.11-7.16,0-12.76-.15-8.15-.58-15.93-1-22.8-.43-7.92-.8-14.75-.63-19.87.11-3.56,1.53-4.67,2.7-5,3.57-1,9.93,4.38,14.77,12.36,4.63,7.64,4.29,22.49,4.09,31.37a42.77,42.77,0,0,0,.11,7.28c.17.68.37,1.52.59,2.43,1,4,2.43,9.95,3.19,11.47,3.69,7.37,7.52,14.48,10.8,20,4.69,7.92,10.26,18.94,11.06,20.53l3,.89c3.1.93,18.85,12,20.68,13.33,1.14-.1,7-.54,10.8.34,4.16,1,9.46,4.07,9.69,4.2l-.51.86c-.06,0-5.39-3.15-9.41-4.08s-10.59-.32-10.66-.31l-.18,0-.15-.11c-6-4.27-18.09-12.56-20.54-13.29l-3.39-1-.1-.19c-.06-.12-6.1-12.18-11.12-20.66-3.29-5.55-7.14-12.68-10.84-20.08-.81-1.61-2.22-7.43-3.26-11.67-.22-.91-.42-1.74-.59-2.43-.29-1.15-.23-3.83-.14-7.55.2-8.76.54-23.43-3.94-30.82s-10.6-12.71-13.66-11.92c-1.53.4-1.91,2.42-2,4-.17,5.08.2,11.89.63,19.79.38,6.87.81,14.66,1,22.83.1,5.62,0,9.77,0,12.8-.1,6.57-.13,8.56,1.53,11.46,2.59,4.54,14.17,29.63,17.21,36.32s13.46,16.29,13.56,16.39l-.64.76c-.15-.11-14.67-11.47-18.73-14l-4.25-2.62-.07-.11c-.13-.24-13.12-24.12-25.56-30.34-8.12-4.06-14.62-3.75-16.85-1.34-1.12,1.21-1.12,2.9,0,4.77,3.88,6.45,21.38,34.78,27.68,44.86,4.46,7.12,12.65,10.15,21.32,13.35,3.51,1.3,7.13,2.64,10.62,4.29,2.61,1.23,5.33,2.49,8,3.72,9.8,4.52,19.05,8.79,21.12,11.37Z" style="fill:#263238"></path><path d="M223.34,264.41c-3.22-3.76-16.68-3.71-21.24-3.06-4.2.6-12.53-.6-15.14-1.18-2.3-.51-9.63-3.64-11.78-4.57a7.36,7.36,0,0,1-4,5.29l-.4-.92c3.12-1.34,3.56-5.1,3.56-5.13l.07-.68.63.27c.09,0,9.62,4.2,12.18,4.77s10.7,1.74,14.77,1.16c3.78-.54,18.34-1,22.15,3.4Z" style="fill:#263238"></path><path d="M142,245.71v-1c5.54,0,9.44-6.56,9.48-6.62l.87.5C152.15,238.88,148.08,245.71,142,245.71Z" style="fill:#263238"></path><path d="M154.74,195.63v-1c5.87,0,6.88-2.59,6.89-2.61l1,.32C162.53,192.47,161.41,195.63,154.74,195.63Z" style="fill:#263238"></path><path d="M176.43,243.76c-.21,0-.41,0-.62,0l.08-1c6,.47,10.85-7.14,10.89-7.21l.85.53C187.43,236.38,182.73,243.76,176.43,243.76Z" style="fill:#263238"></path></g><g id="freepik--Bracelet--inject-202"><circle cx="223.42" cy="380.44" r="5.74" style="fill:#F18624"></circle><path d="M223.42,386.68a6.24,6.24,0,1,1,6.25-6.24A6.25,6.25,0,0,1,223.42,386.68Zm0-11.48a5.24,5.24,0,1,0,5.25,5.24A5.25,5.25,0,0,0,223.42,375.2Z" style="fill:#263238"></path><path d="M237.56,389.71a5.75,5.75,0,1,0-5.74,5.74A5.74,5.74,0,0,0,237.56,389.71Z" style="fill:#F18624"></path><path d="M231.82,396a6.24,6.24,0,1,1,6.24-6.24A6.25,6.25,0,0,1,231.82,396Zm0-11.48a5.24,5.24,0,1,0,5.24,5.24A5.25,5.25,0,0,0,231.82,384.47Z" style="fill:#263238"></path><circle cx="241.53" cy="395.89" r="5.74" style="fill:#F18624"></circle><path d="M241.53,402.14a6.25,6.25,0,1,1,6.24-6.25A6.25,6.25,0,0,1,241.53,402.14Zm0-11.49a5.25,5.25,0,1,0,5.24,5.24A5.25,5.25,0,0,0,241.53,390.65Z" style="fill:#263238"></path><circle cx="252.57" cy="400.75" r="5.74" style="fill:#F18624"></circle><path d="M252.57,407a6.24,6.24,0,1,1,6.24-6.24A6.25,6.25,0,0,1,252.57,407Zm0-11.48a5.24,5.24,0,1,0,5.24,5.24A5.25,5.25,0,0,0,252.57,395.51Z" style="fill:#263238"></path><path d="M270.24,405.61a5.74,5.74,0,1,0-5.74,5.74A5.74,5.74,0,0,0,270.24,405.61Z" style="fill:#F18624"></path><path d="M264.5,411.85a6.24,6.24,0,1,1,6.24-6.24A6.24,6.24,0,0,1,264.5,411.85Zm0-11.48a5.24,5.24,0,1,0,5.24,5.24A5.25,5.25,0,0,0,264.5,400.37Z" style="fill:#263238"></path><circle cx="276.86" cy="407.82" r="5.74" style="fill:#F18624"></circle><path d="M276.86,414.06a6.24,6.24,0,1,1,6.24-6.24A6.25,6.25,0,0,1,276.86,414.06Zm0-11.48a5.24,5.24,0,1,0,5.24,5.24A5.25,5.25,0,0,0,276.86,402.58Z" style="fill:#263238"></path><path d="M295.41,409.14a5.74,5.74,0,1,0-5.74,5.74A5.74,5.74,0,0,0,295.41,409.14Z" style="fill:#F18624"></path><path d="M289.67,415.38a6.24,6.24,0,1,1,6.24-6.24A6.25,6.25,0,0,1,289.67,415.38Zm0-11.48a5.24,5.24,0,1,0,5.24,5.24A5.25,5.25,0,0,0,289.67,403.9Z" style="fill:#263238"></path><path d="M308.22,406.94a5.74,5.74,0,1,0-5.74,5.74A5.74,5.74,0,0,0,308.22,406.94Z" style="fill:#F18624"></path><path d="M302.48,413.18a6.25,6.25,0,1,1,6.24-6.24A6.25,6.25,0,0,1,302.48,413.18Zm0-11.49a5.25,5.25,0,1,0,5.24,5.25A5.26,5.26,0,0,0,302.48,401.69Z" style="fill:#263238"></path><path d="M320.14,402.52a5.74,5.74,0,1,0-5.74,5.74A5.74,5.74,0,0,0,320.14,402.52Z" style="fill:#F18624"></path><path d="M314.4,408.76a6.24,6.24,0,1,1,6.24-6.24A6.25,6.25,0,0,1,314.4,408.76Zm0-11.48a5.24,5.24,0,1,0,5.24,5.24A5.25,5.25,0,0,0,314.4,397.28Z" style="fill:#263238"></path><path d="M331.62,395.45a5.74,5.74,0,1,0-5.74,5.74A5.74,5.74,0,0,0,331.62,395.45Z" style="fill:#F18624"></path><path d="M325.88,401.69a6.24,6.24,0,1,1,6.24-6.24A6.25,6.25,0,0,1,325.88,401.69Zm0-11.48a5.24,5.24,0,1,0,5.24,5.24A5.25,5.25,0,0,0,325.88,390.21Z" style="fill:#263238"></path></g><g id="freepik--Flower--inject-202"><path d="M264.29,206.82A293.51,293.51,0,0,1,252.1,125c0-20,2.37-31.64,2.48-32.13l4.27.88c-.1.47-6.48,55.16,12.51,119.85Z" style="fill:#263238"></path><path d="M259.71,93.62s2.79,11.13-.43,18-11.35,11.13-19.49,10.7-12-4.07-12.85-8.56,1.93-11.14,1.93-11.14-6,4.71-13.71,3.86-10.92-2.79-15-5.79l-8.14-6s10.93-4.93,18.21-5.14,31.91-.22,36.19-.22S254.57,86.33,259.71,93.62Z" style="fill:#F18624"></path><path d="M240.93,122.84c-.39,0-.77,0-1.16,0-10.2-.53-12.72-5.85-13.32-9-.63-3.33.62-7.68,1.4-9.94A20.6,20.6,0,0,1,215.11,107c-8-.88-11.2-2.9-15.23-5.87l-8.83-6.51.78-.35c.45-.2,11.1-5,18.39-5.18,6.58-.2,27.52-.22,36.21-.22a16.63,16.63,0,0,0,2.78-.3c3.32-.54,6.75-1.09,10.91,4.8l.08.16c.11.47,2.79,11.39-.46,18.33C256.64,118.42,249,122.84,240.93,122.84ZM230.08,101l-.75,1.77c0,.07-2.71,6.56-1.9,10.85.94,4.89,5.33,7.79,12.39,8.16,8.12.44,15.93-3.85,19-10.42,2.95-6.29.67-16.5.42-17.56-3.77-5.3-6.74-4.82-9.88-4.31a18.77,18.77,0,0,1-2.94.31c-8.69,0-29.61,0-36.18.22-6,.17-14.59,3.63-17.22,4.75l7.44,5.48c3.91,2.88,7.05,4.83,14.75,5.69,7.42.82,13.28-3.71,13.34-3.75Z" style="fill:#263238"></path><path d="M259.71,93.62a39.43,39.43,0,0,1,.73,4,18.43,18.43,0,0,0-2.62,2.31s-1.76-2.06-6.17-.59-5.59,1.18-10.3,2.06a117.44,117.44,0,0,0-13.48,4.1c.51-1.7,1-2.89,1-2.89a17.79,17.79,0,0,1-2.34,1.46l-1.07-1.2s11.77-10.29,12.65-10.29l6.48-3.24h1.84C250.72,89.33,254.57,86.33,259.71,93.62Z" style="fill:#263238"></path><path d="M227.1,106.31l.29-1c.16-.55.32-1,.47-1.47-.31.19-.68.4-1.09.63l-.35.18-1.67-1.87.38-.33c5.11-4.47,11.3-9.75,12.76-10.36h0l6.79-3.3h1.75a16.63,16.63,0,0,0,2.78-.3c3.32-.54,6.75-1.09,10.91,4.8l.08.16c0,.07.41,1.68.73,4.07l0,.29-.24.18a17.4,17.4,0,0,0-2.53,2.23l-.38.43-.38-.43c-.06-.07-1.64-1.77-5.64-.44a30.78,30.78,0,0,1-6.5,1.47c-1.06.14-2.25.3-3.86.6-4.52.85-13,4-13.4,4.08Zm3-5.27-.74,1.76s-.31.76-.68,1.89a105.63,105.63,0,0,1,12.61-3.78c1.63-.3,2.84-.47,3.9-.62a28.85,28.85,0,0,0,6.33-1.42c3.52-1.18,5.5-.21,6.3.37a18.92,18.92,0,0,1,2.11-1.84c-.26-1.87-.57-3.22-.65-3.57-3.77-5.3-6.74-4.82-9.88-4.31a18.77,18.77,0,0,1-2.94.31h-1.71l-6.49,3.25h-.12c-.79.27-7.59,6-11.94,9.84l.47.53a18.45,18.45,0,0,0,1.92-1.23Z" style="fill:#263238"></path><path d="M279.84,95.33A134.43,134.43,0,0,0,294.19,100a44.83,44.83,0,0,0,6.64,1.29s-9,9.42-17.77,12.42-18-3.43-21.42-8.14-7.28-10.71-7.28-10.71,3.21-4.28,10.28-4.5S279.84,95.33,279.84,95.33Z" style="fill:#F18624"></path><path d="M278.33,115c-7.18,0-14-4.82-17.1-9.12-3.39-4.67-7.25-10.67-7.29-10.73l-.19-.29.21-.28c.13-.18,3.44-4.48,10.66-4.7,6.95-.2,14.74,4.54,15.45,5a133.86,133.86,0,0,0,14.23,4.67,49,49,0,0,0,6.54,1.28l1.13,0-.78.82c-.37.39-9.18,9.55-18,12.55A15.18,15.18,0,0,1,278.33,115ZM255,94.94c.84,1.29,4.13,6.34,7.06,10.37,3.55,4.88,12.62,10.77,20.85,8,7.17-2.44,14.58-9.33,16.87-11.57-.95-.15-2.66-.47-5.68-1.17a135.63,135.63,0,0,1-14.42-4.74l-.08,0c-.08,0-8.1-5.07-14.93-4.85A13.59,13.59,0,0,0,255,94.94Z" style="fill:#263238"></path><path d="M290.19,97.87s-2.65,2.06-8.83,2.36-15.3-5.89-15.3-5.89,9.76-1,11.77,0S290.19,97.87,290.19,97.87Z" style="fill:#263238"></path><path d="M280.92,100.74c-6.24,0-14.77-5.73-15.14-6L264.64,94l1.37-.14c1-.1,10-1,12,0s12.15,3.47,12.26,3.5l1,.24-.82.64c-.11.08-2.84,2.16-9.11,2.46Zm-13.35-6c2.67,1.63,9.13,5.23,13.77,5a19.66,19.66,0,0,0,7.52-1.67c-2.8-.71-9.61-2.46-11.25-3.27C276.29,94.15,270.82,94.44,267.57,94.71Z" style="fill:#263238"></path><path d="M264.64,90.4a22.42,22.42,0,0,1,7.64,1.37l.55,2.87s-6.77.29-9.71,1.47a16.37,16.37,0,0,0-5.3,3.82,2.17,2.17,0,0,0-.34-.3c-1.79-2.66-3.12-4.73-3.12-4.73S257.57,90.62,264.64,90.4Z" style="fill:#263238"></path><path d="M257.82,100.69l-.38-.43h0a1.31,1.31,0,0,0-.25-.22l-.12-.13c-1.8-2.66-3.13-4.74-3.13-4.74l-.19-.29.21-.28c.13-.18,3.44-4.48,10.66-4.7h0a22.54,22.54,0,0,1,7.83,1.4l.27.1.71,3.71-.58,0c-.07,0-6.72.3-9.55,1.43a16.07,16.07,0,0,0-5.1,3.69ZM255,94.94c.43.66,1.49,2.3,2.83,4.28a16.37,16.37,0,0,1,5.12-3.58c2.51-1,7.58-1.37,9.3-1.47l-.38-2a21.07,21.07,0,0,0-7.2-1.25h0A13.59,13.59,0,0,0,255,94.94Z" style="fill:#263238"></path><path d="M266.56,67.06S272.78,57,281.34,53.78s18.85-3,20.56-2.36,0,10.28-2.57,15.21-15,9.21-22.49,10.71-15.63,3.43-15.42,0S266.56,67.06,266.56,67.06Z" style="fill:#F18624"></path><path d="M266.56,67.06S272.78,57,281.34,53.78s18.85-3,20.56-2.36,0,10.28-2.57,15.21-15,9.21-22.49,10.71-15.63,3.43-15.42,0S266.56,67.06,266.56,67.06Z" style="fill:#fff;opacity:0.30000000000000004"></path><path d="M264.81,79.74a5,5,0,0,1-3.24-.79,1.91,1.91,0,0,1-.64-1.64c.21-3.49,4.9-10.09,5.22-10.53.37-.59,6.47-10.26,15-13.47,8.77-3.29,19.09-3,20.91-2.35a1.32,1.32,0,0,1,.75.84c.93,2.43-.73,10.6-3.05,15.06-2.72,5.21-15.45,9.49-22.84,11l-1.7.34A60.84,60.84,0,0,1,264.81,79.74Zm32.78-28.22a48.57,48.57,0,0,0-16.07,2.73c-8.31,3.11-14.47,13-14.53,13.07l0,0c-.05.07-4.84,6.78-5.05,10a1,1,0,0,0,.31.83c1.49,1.29,7.5.07,12.81-1l1.71-.34c7.73-1.55,19.72-5.81,22.14-10.45,2.31-4.42,3.76-12.27,3-14.25-.07-.19-.14-.25-.16-.26A15.63,15.63,0,0,0,297.59,51.52Z" style="fill:#263238"></path><path d="M267,56.56a13.52,13.52,0,0,0-2.57-10.92c-4.07-5.57-8.35-11.56-10.06-10.06s-12,11.56-13.28,17.34a90.54,90.54,0,0,0-1.71,11.35s1.49,6,7.06,8.36,12.21-.65,15.85-5.14S267,56.56,267,56.56Z" style="fill:#F18624"></path><path d="M267,56.56a13.52,13.52,0,0,0-2.57-10.92c-4.07-5.57-8.35-11.56-10.06-10.06s-12,11.56-13.28,17.34a90.54,90.54,0,0,0-1.71,11.35s1.49,6,7.06,8.36,12.21-.65,15.85-5.14S267,56.56,267,56.56Z" style="fill:#fff;opacity:0.30000000000000004"></path><path d="M250.61,74a11.17,11.17,0,0,1-4.37-.87c-5.73-2.43-7.3-8.44-7.36-8.69l0-.08v-.08a91.51,91.51,0,0,1,1.72-11.43c1.32-5.92,11.6-16,13.44-17.61a1.42,1.42,0,0,1,1.14-.35c2.17.24,5.61,5,9.25,9.95l.41.55a13.91,13.91,0,0,1,2.65,11.32c-.09.51-1.21,6.68-4.81,11.13C259.88,71.25,255.27,74,250.61,74Zm-10.74-9.73c.2.68,1.82,5.85,6.76,7.94,5.49,2.32,11.83-.76,15.26-5s4.6-10.62,4.61-10.69v0A13.11,13.11,0,0,0,264,45.94l-.4-.55c-3.2-4.39-6.83-9.35-8.56-9.54a.43.43,0,0,0-.37.1c-1.52,1.33-11.87,11.43-13.12,17.08A91.81,91.81,0,0,0,239.87,64.23Z" style="fill:#263238"></path><path d="M228.87,89.33S215.59,82.91,213,77.55s-12.85-17.77-15-21.41-3-5.36-.86-6,14.35,2.78,19.92,4.93,7.07,5.14,7.07,5.14-.21-5.57-.21-9.64,4.49,1.07,11.77,7.07,12,14.13,12.21,15-10.06.85-10.71,5.14,2.15,8.78,3,11.13.86,3.64-3.64,3.64A12,12,0,0,1,228.87,89.33Z" style="fill:#F18624"></path><path d="M228.87,89.33S215.59,82.91,213,77.55s-12.85-17.77-15-21.41-3-5.36-.86-6,14.35,2.78,19.92,4.93,7.07,5.14,7.07,5.14-.21-5.57-.21-9.64,4.49,1.07,11.77,7.07,12,14.13,12.21,15-10.06.85-10.71,5.14,2.15,8.78,3,11.13.86,3.64-3.64,3.64A12,12,0,0,1,228.87,89.33Z" style="fill:#fff;opacity:0.30000000000000004"></path><path d="M236.58,93a12.37,12.37,0,0,1-8-3.29c-1.18-.58-13.46-6.68-16-12-1.54-3.22-6-9.2-9.65-14-2.4-3.18-4.47-5.94-5.32-7.38-1.57-2.68-2.51-4.37-2-5.57A2.07,2.07,0,0,1,197,49.66c2.36-.71,14.88,2.88,20.24,4.94a16.32,16.32,0,0,1,6.33,4c-.06-2-.16-5.36-.16-8.06,0-.37,0-1.49.81-1.85,1.21-.56,3.1,1,7.25,4.64,1.35,1.18,2.88,2.52,4.54,3.89,7.54,6.21,12.16,14.38,12.38,15.26l.05.21-.13.27c-.25.38-.87.52-2.63.85-2.85.53-7.61,1.43-8,4-.48,3.18,1,6.54,2.16,9,.33.73.61,1.36.81,1.9.41,1.12.75,2.28.15,3.14S239,93,236.58,93ZM198,50.55a2.18,2.18,0,0,0-.64.07c-.69.21-.8.48-.84.57-.29.74.68,2.49,2,4.69.82,1.4,2.88,4.13,5.25,7.29,3.83,5.09,8.17,10.86,9.76,14.17,2.47,5.13,15.49,11.48,15.62,11.54l.13.1A11.6,11.6,0,0,0,236.58,92c1.93,0,3.09-.25,3.44-.74s.11-1.2-.27-2.23c-.18-.5-.46-1.12-.78-1.83-1.17-2.56-2.76-6.07-2.24-9.55.49-3.27,5.69-4.25,8.79-4.83.68-.13,1.43-.27,1.81-.39A52.13,52.13,0,0,0,235.41,58c-1.68-1.38-3.22-2.72-4.57-3.9-2.7-2.36-5.49-4.8-6.18-4.49-.08,0-.22.27-.22.94,0,4,.22,9.56.22,9.62l.09,2.31-1-2.07s-1.51-2.87-6.8-4.9S201.1,50.55,198,50.55Z" style="fill:#263238"></path><path d="M229.8,80.05c-1.28-1.29-2.61-5.31-3.56-10.76a46.41,46.41,0,0,0-2.54-8.89l.92-.39a46.8,46.8,0,0,1,2.6,9.1c.89,5.11,2.18,9.12,3.29,10.23Z" style="fill:#263238"></path><path d="M327.39,76.48s2.57-2.35-5.78-3.42A49.7,49.7,0,0,0,300.4,75c-5.35,1.72-6.42,2.36-13.49,5.14S270.42,87.19,269.13,90s0,3.65,0,3.65A38.6,38.6,0,0,0,282,94C288,93,323.75,86.76,327.39,76.48Z" style="fill:#F18624"></path><path d="M327.39,76.48s2.57-2.35-5.78-3.42A49.7,49.7,0,0,0,300.4,75c-5.35,1.72-6.42,2.36-13.49,5.14S270.42,87.19,269.13,90s0,3.65,0,3.65A38.6,38.6,0,0,0,282,94C288,93,323.75,86.76,327.39,76.48Z" style="fill:#fff;opacity:0.30000000000000004"></path><path d="M277.19,94.93A41.56,41.56,0,0,1,269,94.1l-.17-.07c-.07,0-1.63-1.13-.18-4.26s11.94-7.71,18.05-10.11c2.17-.86,3.77-1.51,5.11-2.06,3-1.22,4.69-1.9,8.41-3.09a49.91,49.91,0,0,1,21.42-2c4,.51,6.12,1.38,6.52,2.66a1.59,1.59,0,0,1-.37,1.53c-3.37,9-29.88,15-45.43,17.73l-.32.06A28,28,0,0,1,277.19,94.93Zm-7.82-1.78a37.78,37.78,0,0,0,12.53.4l.31,0c26.58-4.74,42.46-10.84,44.71-17.19l0-.11.09-.08a.67.67,0,0,0,.19-.6c-.1-.31-.81-1.34-5.7-2a49,49,0,0,0-21,1.91c-3.69,1.18-5.34,1.85-8.34,3.07-1.34.55-3,1.2-5.13,2.06-9.85,3.88-16.56,7.56-17.5,9.59S269.19,93,269.37,93.15Z" style="fill:#263238"></path><path d="M261.21,93.83s11.35,0,15-1.29,13.92-7.06,19.28-13.49S306,63.42,303.4,63.42s-21.42,3-29.34,7.92-11.35,6-11.35,6S250.29,87.4,251.79,90.83,261.21,93.83,261.21,93.83Z" style="fill:#F18624"></path><path d="M261.21,93.83s11.35,0,15-1.29,13.92-7.06,19.28-13.49S306,63.42,303.4,63.42s-21.42,3-29.34,7.92-11.35,6-11.35,6S250.29,87.4,251.79,90.83,261.21,93.83,261.21,93.83Z" style="fill:#fff;opacity:0.30000000000000004"></path><path d="M260.34,94.35c-2.19,0-7.69-.31-9-3.32-1.61-3.67,9.76-13,11.06-14.08l.17-.09s3.49-1.12,11.24-5.94c8.07-5,27.07-8,29.6-8a1.08,1.08,0,0,1,1,.63c1,2.19-4.3,10.69-8.58,15.82C290.62,85.66,280.38,91.6,276.37,93c-3.65,1.28-14.52,1.31-15.15,1.31C261.14,94.33,260.81,94.35,260.34,94.35ZM263,77.78c-4.68,3.82-11.68,10.62-10.71,12.85,1.12,2.55,6.84,2.82,8.94,2.7h0c.11,0,11.31,0,14.83-1.26,3.2-1.13,13.57-6.76,19-13.34,5.07-6.08,9.05-13.47,8.45-14.76,0,0,0,0-.14,0-2.48,0-21.16,2.92-29.08,7.85C267.06,76.28,263.57,77.58,263,77.78Z" style="fill:#263238"></path><path d="M276.2,92.54c-3,1.08-11.44,1.25-14.14,1.28a13.83,13.83,0,0,0,1.06-2.42c0-1.18,2.94-7.94,3.82-8.24s1.47.89,7.06,3.24,11.77-.3,11.77-.3l.22,1.09A51.44,51.44,0,0,1,276.2,92.54Z" style="fill:#263238"></path><path d="M261.31,94.33l.29-.7c.17-.41.37-.81.56-1.18a4.08,4.08,0,0,0,.46-1c0-1.14,2.91-8.29,4.17-8.71.64-.22,1.13.07,2.11.63a44.43,44.43,0,0,0,5.3,2.62c5.32,2.24,11.32-.27,11.38-.29l.56-.25.41,2-.28.19a53.2,53.2,0,0,1-9.9,5.41h0c-3,1.07-11,1.27-14.3,1.3Zm5.9-10.71-.11,0c-.69.44-3.48,6.62-3.48,7.76a3.77,3.77,0,0,1-.57,1.51c-.07.13-.13.27-.2.4,3.17,0,10.47-.28,13.19-1.24h0A50.64,50.64,0,0,0,285.43,87l0-.18c-1.69.61-6.8,2.1-11.59.08a44.9,44.9,0,0,1-5.41-2.67A3.45,3.45,0,0,0,267.21,83.62Z" style="fill:#263238"></path><path d="M276.63,89.76s13.28-6,22.27-7.92,17.78-.43,23.35-2.79,6.21-4.07,6.21-2.57S317.32,89.33,310.25,93.4s-15,4.93-24.2,4.28-16.92-2.78-16.92-4.06S276.63,89.76,276.63,89.76Z" style="fill:#F18624"></path><path d="M291.21,98.37c-1.65,0-3.38-.06-5.19-.19-7.11-.49-17.39-2.4-17.39-4.56,0-1.36,4.25-3.1,7.82-4.32.61-.28,13.58-6.07,22.35-8a69.94,69.94,0,0,1,12.12-1.21c4.41-.17,8.22-.32,11.13-1.55A31.45,31.45,0,0,0,327,76c.81-.5,1.18-.74,1.58-.51s.39.69.39,1c0,2-11.92,13.59-18.46,17.35C305.14,96.92,299.05,98.37,291.21,98.37Zm36.7-21.75-.39.24a31.41,31.41,0,0,1-5.08,2.65c-3.08,1.31-7,1.46-11.48,1.63A69.4,69.4,0,0,0,299,82.32c-8.84,1.9-22,7.84-22.17,7.9h0c-3.27,1.13-6.93,2.77-7.16,3.42.38.79,7.09,2.88,16.46,3.54C296.32,97.9,303.7,96.6,310,93,316.8,89.06,327.08,78.52,327.91,76.62Z" style="fill:#263238"></path><path d="M249.43,71.77a124.86,124.86,0,0,0,10.5-11.56C264,54.85,267,49.28,269.78,51s7.92,9.42,8.14,17.13S273,79.48,267,81.62,252.43,80.77,249.43,71.77Z" style="fill:#F18624"></path><path d="M249.43,71.77a124.86,124.86,0,0,0,10.5-11.56C264,54.85,267,49.28,269.78,51s7.92,9.42,8.14,17.13S273,79.48,267,81.62,252.43,80.77,249.43,71.77Z" style="fill:#fff;opacity:0.30000000000000004"></path><path d="M263.05,82.79a14.12,14.12,0,0,1-6.13-1.44,15.84,15.84,0,0,1-8-9.42l-.1-.3.22-.22A124.18,124.18,0,0,0,259.53,59.9c.8-1,1.55-2.11,2.28-3.12,3.12-4.37,5.59-7.83,8.23-6.21s8.15,9.39,8.38,17.55c.24,8.83-6.31,12.21-11.26,14A12.07,12.07,0,0,1,263.05,82.79ZM250,71.91a14.75,14.75,0,0,0,7.35,8.54,12.35,12.35,0,0,0,9.46.7c7.4-2.64,10.77-6.77,10.6-13-.21-7.48-5.24-15.08-7.91-16.72-1.83-1.13-4.18,2.15-6.89,5.94-.73,1-1.49,2.09-2.3,3.15A124.43,124.43,0,0,1,250,71.91Z" style="fill:#263238"></path><path d="M245.79,96.19A164.35,164.35,0,0,1,230.16,103c-8.57,3.21-17.78-.43-21.42-4.71s-10.28-13.92-10.92-15.42.42-4.07,2.57-4.93,8.78,1.71,10.49,3,11.14,3.85,16.06,5.35,9.86,3.86,10.71,4.07S246.22,92.76,245.79,96.19Z" style="fill:#F18624"></path><path d="M223.29,104.75c-6.16,0-12-2.64-14.93-6.1-3.67-4.31-10.31-13.94-11-15.55a3.72,3.72,0,0,1,.12-2.84,5,5,0,0,1,2.72-2.74c2.36-1,9.17,1.7,11,3.06,1.29,1,7.73,2.86,12.44,4.24l3.47,1c3.29,1,6.53,2.37,8.67,3.26,1,.42,1.76.74,2,.81s9,2.3,8.52,6.33l0,.26-.23.12a165.36,165.36,0,0,1-15.69,6.88A20.07,20.07,0,0,1,223.29,104.75ZM201.51,78.3a2.5,2.5,0,0,0-.94.15,4,4,0,0,0-2.16,2.2,2.73,2.73,0,0,0-.13,2.06c.58,1.37,7.09,10.89,10.84,15.29,3.22,3.79,12.08,7.86,20.86,4.57a166.38,166.38,0,0,0,15.33-6.7c-.08-2.49-5.73-4.47-7.78-5-.31-.08-.95-.35-2.16-.85-2.12-.89-5.33-2.24-8.57-3.23l-3.47-1c-6.41-1.88-11.42-3.4-12.75-4.4C209.06,80.24,204,78.3,201.51,78.3Z" style="fill:#263238"></path><path d="M200.39,78c2.14-.86,8.78,1.71,10.49,3s11.14,3.85,16.06,5.35c.92.28,1.83.59,2.72.91-3.64-.55-15.17-2.33-21.78-4.12C200,81,197.82,82.05,197.82,82.05l-.17-.16A4.51,4.51,0,0,1,200.39,78Z" style="fill:#F18624"></path><path d="M200.39,78c2.14-.86,8.78,1.71,10.49,3s11.14,3.85,16.06,5.35c.92.28,1.83.59,2.72.91-3.64-.55-15.17-2.33-21.78-4.12C200,81,197.82,82.05,197.82,82.05l-.17-.16A4.51,4.51,0,0,1,200.39,78Z" style="fill:#fff;opacity:0.30000000000000004"></path><path d="M229.58,87.73c-3.43-.51-15.16-2.32-21.83-4.13-7.51-2-9.7-1.11-9.72-1.1l-.31.14-.57-.54v-.22a5,5,0,0,1,3-4.36h0c2.36-1,9.17,1.7,11,3.06,1.29,1,7.73,2.86,12.44,4.24l3.47,1c.85.26,1.77.57,2.73.92Zm-29.71-6.45A32.22,32.22,0,0,1,208,82.64c4.09,1.1,10.1,2.21,14.91,3-6.22-1.83-11-3.3-12.34-4.28-1.75-1.31-8.16-3.68-10-2.93a4,4,0,0,0-2.38,3A8.16,8.16,0,0,1,199.87,81.28Z" style="fill:#263238"></path><path d="M249.65,68.34s4.71,1.29,10.7,3,12.85,5.78,13.71,11.78-2.14,8.14-8.35,10.28-14.35,4.71-19.92,2.79S231.87,88.05,231.44,81s1.93-9.64,6.85-11.78S249.65,68.34,249.65,68.34Z" style="fill:#F18624"></path><path d="M250.31,97.35a14.4,14.4,0,0,1-4.68-.69c-5.66-2-14.24-8.29-14.69-15.65s2.28-10.15,7.15-12.27c5-2.18,11.39-.94,11.65-.89h0s4.78,1.31,10.71,3c6.21,1.78,13.17,5.91,14.07,12.19s-2.37,8.64-8.69,10.82C262.08,95.18,255.78,97.35,250.31,97.35Zm-5.12-28.88a17.16,17.16,0,0,0-6.7,1.19c-4.67,2-7,4.34-6.55,11.29.4,6.61,8.4,12.82,14,14.76s14.76-1.11,19.6-2.78c6.07-2.1,8.82-4.09,8-9.74-.84-5.81-7.71-9.76-13.35-11.37s-10.36-2.9-10.69-3A26.08,26.08,0,0,0,245.19,68.47Z" style="fill:#263238"></path></g></svg>
